<?xml version="1.0" encoding="utf-8"?>
<!-- Uploaded to SVGRepo https://www.svgrepo.com -->
<svg version="1.2" baseProfile="tiny" id="Layer_1" xmlns="http://www.w3.org/2000/svg" xmlns:xlink="http://www.w3.org/1999/xlink"
	 x="0px" y="0px" viewBox="0 0 256 256" xml:space="preserve">
<path d="M192.3,158.1c0-1-0.2-1.8-0.6-2.7l-17-48.1c0,0-1.8-18.8-3.6-26c-7.5-32.3-43.6-61.7-82.7-61.7c-47.6,0-86.2,38.6-86.3,86.3
	c0,27.5,12.9,52,33,67.8V245h92v-24.7h13.5c18.8,0,34-15.2,34-34l1.4-21.3h9.3C189.3,165,192.3,162,192.3,158.1z M75.6,114.5
	c-46.8,0-39.5,43.3-39.5,43.3c-14.5-13.6-22.8-34.3-22.8-53.3c0-41.2,33.4-74.5,74.5-74.5c21.5,0,40.7,9.1,54.3,23.6
	C142.1,53.6,143,113.1,75.6,114.5z M153.6,123.3c-4.7,0-8.5-3.9-8.5-8.5c0-4.6,3.9-8.4,8.5-8.4c4.6,0,8.4,3.9,8.4,8.4
	C162.1,119.4,158.2,123.3,153.6,123.3z M240.5,204.1c-1.3,5.1-4,10.1-1.7,14.4l8.4,26.6h-45.5l-10.3-24.2
	c-4.5-7.9-5.9-17.7-3.2-27.2l16.4-57.5c1.6-6.1,7.9-9.5,14-7.9c6.1,1.6,9.6,7.9,7.9,14L213.7,189c-0.7,1.9,0.5,4,2.5,4.6
	c2.1,0.6,4.2-0.6,4.8-2.6l12.6-45.9c1.4-5,0.7-10.1-1.7-14.5c-2.4-4.4-6.7-7.6-11.5-8.9c-2.2-0.8-4.8-0.9-7.1-0.7l-23.6-41.9
	c-3.1-5.6-1.3-12.5,4.3-15.6s12.6-1.1,15.6,4.4l38.3,68.1c4.7,8,6.6,18.5,3.9,28.3L240.5,204.1z"/>
</svg>
