<?xml version="1.0" encoding="iso-8859-1"?>
<!-- Generator: Adobe Illustrator 19.0.0, SVG Export Plug-In . SVG Version: 6.00 Build 0)  -->
<svg version="1.1" id="Capa_1" xmlns="http://www.w3.org/2000/svg" xmlns:xlink="http://www.w3.org/1999/xlink" x="0px" y="0px"
	 viewBox="0 0 470 470" style="enable-background:new 0 0 470 470;" xml:space="preserve">
<g>
	<path d="M123.431,225.992c-9.486-9.486-23.904-11.096-35.074-4.844v-97.677c0-4.961-1.242-9.636-3.426-13.737
		c1.315-0.391,2.69-0.596,4.093-0.596c7.903,0,14.333,6.429,14.333,14.333v72.109c0,4.142,3.358,7.5,7.5,7.5s7.5-3.358,7.5-7.5
		v-72.109c0-16.174-13.159-29.333-29.333-29.333c-5.35,0-10.508,1.445-15.01,4.133c-4.39-2.621-9.516-4.133-14.99-4.133
		c-16.174,0-29.333,13.158-29.333,29.339l0.122,137.644c0.005,6.281,2.331,15.148,5.409,20.625c0.05,0.09,0.103,0.178,0.157,0.266
		l86.394,139.901c1.794,3.271,3.411,9.494,3.411,13.162V462.5c0,4.142,3.358,7.5,7.5,7.5s7.5-3.358,7.5-7.5v-27.425
		c0-6.283-2.322-15.153-5.401-20.631c-0.051-0.09-0.103-0.178-0.157-0.266L48.233,274.278c-1.795-3.273-3.416-9.499-3.419-13.169
		l-0.122-137.637c0-7.903,6.43-14.333,14.333-14.333s14.333,6.429,14.333,14.333v123.262c0,0.176,0.014,0.349,0.026,0.522
		c0.129,7.336,2.979,14.633,8.565,20.219l67.177,67.176c2.929,2.929,7.678,2.929,10.606,0c2.929-2.929,2.929-7.677,0-10.606
		l-67.177-67.176c-5.588-5.588-5.588-14.681,0-20.269c5.588-5.588,14.681-5.588,20.27,0l82.656,82.656
		c9.226,9.226,17.021,28.044,17.021,41.092V462.5c0,4.142,3.358,7.5,7.5,7.5s7.5-3.358,7.5-7.5V360.347
		c0-16.982-9.406-39.691-21.415-51.699L123.431,225.992z"/>
	<path d="M410.976,94.139c-5.474,0-10.6,1.511-14.99,4.133c-4.501-2.688-9.66-4.133-15.01-4.133
		c-16.174,0-29.333,13.158-29.333,29.333v72.109c0,4.142,3.358,7.5,7.5,7.5s7.5-3.358,7.5-7.5v-72.109
		c0-7.903,6.43-14.333,14.333-14.333c1.403,0,2.779,0.205,4.093,0.596c-2.183,4.101-3.426,8.776-3.426,13.737v97.677
		c-11.169-6.251-25.587-4.642-35.074,4.845l-82.656,82.656c-12.008,12.008-21.415,34.717-21.415,51.699V462.5
		c0,4.142,3.358,7.5,7.5,7.5s7.5-3.358,7.5-7.5V360.347c0-13.048,7.795-31.866,17.021-41.092l82.656-82.656
		c5.588-5.588,14.681-5.588,20.27,0c5.588,5.588,5.588,14.681,0,20.27l-67.177,67.176c-2.929,2.929-2.929,7.677,0,10.606
		c2.929,2.929,7.678,2.929,10.606,0l67.177-67.176c5.586-5.586,8.435-12.883,8.565-20.219c0.012-0.173,0.026-0.346,0.026-0.522
		V123.471c0-7.903,6.43-14.333,14.333-14.333s14.333,6.429,14.333,14.326l-0.122,137.644c-0.003,3.67-1.625,9.896-3.419,13.169
		l-86.393,139.901c-0.054,0.087-0.106,0.176-0.157,0.266c-3.079,5.478-5.401,14.348-5.401,20.631V462.5c0,4.142,3.358,7.5,7.5,7.5
		s7.5-3.358,7.5-7.5v-27.425c0-3.668,1.617-9.89,3.411-13.162l86.394-139.901c0.054-0.087,0.106-0.176,0.157-0.266
		c3.078-5.477,5.404-14.343,5.409-20.625l0.122-137.65C440.308,107.297,427.149,94.139,410.976,94.139z"/>
	<path d="M265.738,201.315c25.912-8.119,47.448-26.222,60.088-49.78c0.273-0.414,0.505-0.851,0.691-1.307
		C333.85,136.073,338,120.013,338,103c0-16.32-3.822-31.762-10.607-45.489c-0.152-0.384-0.337-0.75-0.547-1.099
		c-12.524-24.59-34.634-43.513-61.376-51.811c-0.274-0.101-0.558-0.184-0.848-0.253C255.236,1.525,245.293,0,235,0
		c-10.29,0-20.23,1.524-29.613,4.346c-0.296,0.07-0.585,0.155-0.864,0.258C162.561,17.628,132,56.811,132,103
		c0,56.794,46.206,103,103,103c10.415,0,20.471-1.559,29.954-4.447C265.221,201.488,265.482,201.408,265.738,201.315z
		 M270.677,183.436v-36.04c0-4.142-3.358-7.5-7.5-7.5h-17.689c-0.294-0.296-0.811-1.153-0.811-2.5V119.5h51.354l14.974,27.807
		C301.715,163.183,287.596,175.902,270.677,183.436z M253.372,16.935c-3.474,6.701-10.5,11.242-18.372,11.242
		c-7.872,0-14.898-4.541-18.372-11.242C222.556,15.671,228.701,15,235,15C241.299,15,247.444,15.671,253.372,16.935z M147,103
		c0-26.974,12.204-51.149,31.375-67.304v36.971h-9.865c-4.142,0-7.5,3.358-7.5,7.5v48.5c0,4.142,3.358,7.5,7.5,7.5h12.667
		c1.355,0,2.5,1.145,2.5,2.5v19.203c0,4.142,3.358,7.5,7.5,7.5s7.5-3.358,7.5-7.5v-19.203c0-9.65-7.851-17.5-17.5-17.5h-5.167v-33.5
		h3.234c1.258,2.378,3.754,4,6.631,4c4.142,0,7.5-3.358,7.5-7.5V25.485c2.834-1.528,5.761-2.903,8.77-4.118
		c5.485,12.882,18.351,21.81,32.855,21.81c14.505,0,27.37-8.928,32.855-21.81c15.972,6.452,29.631,17.459,39.36,31.405H275.51
		c-4.142,0-7.5,3.358-7.5,7.5v7.561h-23.833c-4.142,0-7.5,3.358-7.5,7.5c0,2.451,1.181,4.621,3,5.99v7.01c0,4.142,3.358,7.5,7.5,7.5
		s7.5-3.358,7.5-7.5v-5.5h20.833c4.142,0,7.5-3.358,7.5-7.5v-7.561h32.622C320.366,78.565,323,90.48,323,103
		c0,9.431-1.497,18.517-4.256,27.041l-11.63-21.597c-1.308-2.429-3.844-3.944-6.604-3.944h-63.333c-4.142,0-7.5,3.358-7.5,7.5
		v25.396c0,9.649,6.953,17.5,15.5,17.5h10.5v33.645C249.043,190.144,242.12,191,235,191C186.477,191,147,151.523,147,103z"/>
</g>
<g>
</g>
<g>
</g>
<g>
</g>
<g>
</g>
<g>
</g>
<g>
</g>
<g>
</g>
<g>
</g>
<g>
</g>
<g>
</g>
<g>
</g>
<g>
</g>
<g>
</g>
<g>
</g>
<g>
</g>
</svg>
